<?xml version="1.0" encoding="UTF-8" standalone="no"?>
<!-- Created with Inkscape (http://www.inkscape.org/) -->

<svg
   width="145.76866mm"
   height="116.22403mm"
   viewBox="0 0 145.76866 116.22403"
   version="1.1"
   id="svg1"
   xml:space="preserve"
   inkscape:version="1.4.2 (f4327f4, 2025-05-13)"
   sodipodi:docname="logo.svg"
   xmlns:inkscape="http://www.inkscape.org/namespaces/inkscape"
   xmlns:sodipodi="http://sodipodi.sourceforge.net/DTD/sodipodi-0.dtd"
   xmlns="http://www.w3.org/2000/svg"
   xmlns:svg="http://www.w3.org/2000/svg"><sodipodi:namedview
     id="namedview1"
     pagecolor="#ffffff"
     bordercolor="#000000"
     borderopacity="0.25"
     inkscape:showpageshadow="2"
     inkscape:pageopacity="0.0"
     inkscape:pagecheckerboard="0"
     inkscape:deskcolor="#d1d1d1"
     inkscape:document-units="mm"
     showguides="true"
     inkscape:zoom="1"
     inkscape:cx="317"
     inkscape:cy="230.5"
     inkscape:window-width="1920"
     inkscape:window-height="1017"
     inkscape:window-x="1912"
     inkscape:window-y="-8"
     inkscape:window-maximized="1"
     inkscape:current-layer="g13" /><defs
     id="defs1" /><g
     inkscape:label="Warstwa 1"
     inkscape:groupmode="layer"
     id="layer1"
     transform="translate(-39.867157,-22.741604)"><g
       id="g13"
       transform="matrix(0.93410214,0,0,0.93410214,92.06774,-237.51839)"><g
         id="g33"
         inkscape:label="car"
         transform="translate(63.43007)"><g
           id="g30"
           inkscape:label="mug"><path
             id="path1-3"
             style="display:inline;fill:#593000;fill-opacity:1;stroke:#593000;stroke-width:6.64424;stroke-dasharray:none;stroke-opacity:1"
             d="m 15.28381,329.9407 c -1.582845,-0.6074 -65.857098,-0.42223 -66.827913,0.19252 -1.183456,0.74938 -0.578646,16.43159 0.838682,21.74101 2.231518,8.35947 7.251724,27.68622 14.612209,33.7575 2.123066,1.75102 3.721463,2.72992 5.199718,3.25294 0.906905,-7.12646 6.906455,-12.46303 14.011412,-12.46295 6.862648,-1.4e-4 12.7327595,4.98713 13.9157052,11.82343 2.06811827,-0.84528 3.6175606,-2.47497 6.4538687,-5.59195 2.5281291,-2.7783 3.2353338,-6.71073 7.0408351,-7.6527 12.363351,-3.06033 22.806913,-20.79656 22.887833,-29.68027 0.03442,-3.7791 -1.022931,-6.45014 -3.406731,-8.61033 -2.666975,-2.41679 -4.484364,-2.99978 -9.174606,-2.94258 l -4.55743,0.0553 v -1.74984 c 0,-1.01606 -0.41634,-1.91006 -0.993583,-2.13156 z m -28.167686,6.92377 c 13.46618746,-1.4e-4 21.027941,9.24026 21.0278237,19.95942 1.173e-4,10.71916 -10.9164462,19.40877 -24.3826337,19.40863 -13.465972,-1e-4 -24.382198,-8.68964 -24.382081,-19.40863 -1.17e-4,-10.71899 14.270919,-19.95932 27.736891,-19.95942 z m 34.022417,2.41127 c 1.303029,0.0118 2.616449,0.19379 3.532312,0.57646 1.715066,0.7166 2.378583,1.4761 2.947558,3.37519 0.642377,2.14405 0.559174,2.85888 -0.667737,5.7109 -1.645286,3.82457 -5.848629,15.5349 -10.994148,18.13235 -5.35699,2.70422 -5.391714,2.74528 -4.327843,-1.09427 1.486143,-5.36354 3.280255,-15.029 3.812794,-18.49195 0.532539,-3.46296 1.057073,-6.61443 1.166189,-7.00321 0.217151,-0.77394 2.359161,-1.22513 4.530875,-1.20547 z"
             sodipodi:nodetypes="cssccccscssccscccccccssssssscs" /><path
             id="path13"
             style="display:inline;fill:#a46400;fill-opacity:1;stroke:#ffffff;stroke-width:2.81724;stroke-dasharray:none;stroke-opacity:1;paint-order:stroke fill markers"
             d="m 15.283699,329.94096 c -1.582845,-0.6074 -65.857261,-0.42243 -66.828076,0.19232 -1.183456,0.74938 -0.578299,16.43177 0.839029,21.74119 2.231518,8.35947 7.251644,27.68604 14.612129,33.75732 2.123066,1.75102 3.721425,2.72965 5.19968,3.25267 0.906905,-7.12646 6.906442,-12.46292 14.011399,-12.46284 6.862648,-1.4e-4 12.7326744,4.9875 13.9156201,11.8238 2.06811831,-0.84528 3.61770137,-2.47502 6.4540095,-5.592 2.5281291,-2.7783 3.2354445,-6.7112 7.0409464,-7.65317 12.363351,-3.06033 22.806562,-20.79645 22.887482,-29.68016 0.03442,-3.7791 -1.022887,-6.45001 -3.406687,-8.6102 -2.666975,-2.41679 -4.483907,-2.99955 -9.174149,-2.94235 l -4.557574,0.0552 v -1.75009 c 0,-1.01606 -0.416566,-1.91016 -0.993809,-2.13166 z m 5.854813,9.33505 c 1.303029,0.0118 2.616487,0.19354 3.53235,0.57621 1.715066,0.7166 2.378736,1.47618 2.947711,3.37527 0.642377,2.14405 0.558753,2.85874 -0.668158,5.71076 -1.645286,3.82457 -5.848441,15.53477 -10.99396,18.13222 -5.35699,2.70422 -5.391574,2.74537 -4.327703,-1.09418 1.486143,-5.36354 3.280253,-15.02864 3.812792,-18.49159 0.532539,-3.46296 1.057096,-6.61462 1.166212,-7.0034 0.217151,-0.77394 2.359042,-1.22495 4.530756,-1.20529 z m -34.099054,0.5969 c 3.8598021,-0.0205 6.6369904,0.78083 9.5434751,2.75232 1.3334476,0.9045 1.8736675,1.58889 1.7485515,2.21443 -0.1456532,0.72821 -0.3710286,0.9208 -1.4137062,1.20758 -6.0973567,1.67706 -9.7693864,3.89957 -14.5401024,8.80023 -2.801477,2.87779 -5.122404,4.65985 -7.785728,5.97741 -2.203054,1.08984 -3.895822,1.69602 -6.083918,2.17994 -1.821351,0.40284 -2.21111,0.40218 -2.730866,-0.008 v 7.7e-4 c -0.968184,-0.76156 -1.383286,-5.11893 -0.737886,-7.74359 1.275762,-5.18819 5.237274,-9.60027 11.390871,-12.68581 3.817815,-1.91434 6.815675,-2.6757 10.609309,-2.69562 z m 13.03368205,8.44316 c 0.39003738,10e-4 0.6174653,0.10387 0.87734071,0.30879 0.96818974,0.76157 1.38328904,5.11893 0.73788564,7.74359 -1.27576131,5.18819 -5.2372655,9.60026 -11.3908707,12.68581 -3.5357697,1.77292 -6.6752897,2.60925 -10.1917107,2.71554 -1.102772,0.0334 -2.193096,0.0271 -2.42284,-0.0153 -0.229738,-0.0411 -0.869214,-0.15275 -1.420602,-0.24826 -2.106244,-0.36527 -4.257884,-1.24795 -6.117632,-2.50943 -1.333455,-0.9045 -1.874422,-1.58885 -1.749317,-2.21442 0.145654,-0.72822 0.371797,-0.92081 1.414472,-1.20759 6.097357,-1.67708 9.769386,-3.89957 14.540102,-8.80023 2.801477,-2.87781 5.122407,-4.65986 7.7857289,-5.97741 2.2030486,-1.08985 3.8958319,-1.69678 6.0839172,-2.1807 0.91067568,-0.20142 1.46348856,-0.30149 1.85352595,-0.30037 z"
             inkscape:label="mug"
             sodipodi:nodetypes="sssccccssssccsssssssssssscssssssccssccscsssccssssssss" /><path
             d="m -17.865987,279.74251 -1.702578,3.45726 c -1.971914,4.00588 -2.250902,8.45339 -0.716431,11.42075 0.548739,1.06115 2.632909,3.68695 4.631133,5.83489 4.325912,4.65004 5.277037,7.14435 4.947589,12.97468 -0.13492,2.38854 -0.177407,4.34303 -0.09425,4.34303 0.08316,0 0.8695221,-1.22509 1.7470186,-2.72244 3.5879421,-6.12234 2.5408699,-12.42068 -3.0795036,-18.52223 -4.513974,-4.90044 -5.007905,-5.97624 -5.395837,-11.75713 z m -6.389646,14.77227 c -0.408051,0.0384 -2.582955,4.95518 -2.957673,6.69231 -0.607895,2.81798 1.029717,6.28382 4.562172,9.65764 3.406097,3.25314 4.979924,6.1903 5.551383,10.35952 0.460932,3.3629 1.210421,2.76779 1.851227,-1.47041 0.606069,-4.00833 -0.617866,-7.15662 -4.454132,-11.456 -3.830898,-4.29335 -4.943282,-6.94014 -4.621172,-10.99013 0.119238,-1.50026 0.152872,-2.73362 0.07816,-2.79063 l -7.66e-4,-7.7e-4 -7.66e-4,-7.6e-4 h -7.67e-4 c -3.12e-4,-8e-5 -0.002,-7.3e-4 -0.0023,-7.7e-4 h -7.67e-4 c -0.0015,0 -0.003,-1.5e-4 -0.0046,0 z"
             style="display:inline;fill:#a46400;fill-opacity:1;stroke:#914c01;stroke-width:0.593103;stroke-linecap:square;stroke-linejoin:miter;stroke-dasharray:none;stroke-opacity:1;paint-order:stroke fill markers"
             id="path1-38" /></g><g
           id="g32"><path
             style="display:inline;fill:#593000;fill-opacity:1;stroke:none;stroke-width:0.501172;stroke-dasharray:none;stroke-opacity:1"
             d="m -119.03408,391.26952 c -0.28054,-0.28055 -0.30866,-1.22402 -0.25952,-8.70619 l 0.0488,-7.43378 c 0.0345,-0.93101 0.18268,-1.24298 0.60082,-1.9191 1.71225,-2.76864 7.23688,-5.82087 15.46992,-8.54671 1.36929,-0.45335 2.62615,-0.86632 3.303314,-1.12173 0.476167,-0.1796 0.600867,-0.28511 0.851087,-0.67686 0.963516,-1.5377 3.943372,-6.6019 7.362382,-12.52398 l 6.634614,-11.49184 c 0.834915,-1.32683 1.045499,-1.37641 2.291578,-1.37641 l 15.737076,-0.0458 c 12.571848,-0.0366 12.256,0.01 12.450682,0.17135 0.3996,0.33164 0.322311,0.89793 -0.169571,1.24246 -0.386665,0.27083 2.729711,0.30573 -11.909955,0.30573 h -15.286716 c -0.969635,-0.025 -1.260792,0.0406 -1.594805,0.61918 l -1.137916,1.98306 -1.493209,2.60223 12.361548,0.0506 c 4.902728,0.0201 7.863437,0.0688 9.664817,0.0688 1.434412,0 3.000263,1.11644 3.000263,3.25776 0,2.69479 0.0771,7.30349 0.05342,16.1041 l -0.0501,18.61949 -0.834679,0.0604 -0.834679,0.0604 v -8.75088 -8.75087 h -18.000578 -16.967592 c -0.787493,0.0118 -1.197999,0.0532 -1.81062,0.25061 l -1.401391,0.45163 c -8.17009,2.633 -13.93618,5.5341 -15.91269,8.00617 l -0.60317,0.7544 -0.0982,8.33621 c -0.0839,7.12301 -0.14107,8.36329 -0.39279,8.52226 -0.42467,0.26819 -0.71453,0.23505 -1.07216,-0.12257 z m 33.713026,0.079 c -0.129618,-0.12963 -0.235672,-0.42127 -0.235672,-0.64811 0,-0.22683 0.106054,-0.51848 0.235672,-0.6481 0.18099,-0.18099 6.429005,-0.23567 26.927293,-0.23567 h 22.439854 c 3.372588,-0.0222 3.659463,1.61976 1.161649,1.61976 -9.64942,0 -50.522321,0.2359 -50.528796,-0.0878 z"
             id="path21"
             inkscape:label="car"
             sodipodi:nodetypes="sscsssssccscssccccssssccccccccsscsssssssscsss"
             transform="translate(-1.3283041e-6)" /><g
             id="g29"
             inkscape:label="wheels"><path
               id="circle28"
               style="fill:#593000;fill-opacity:1;stroke:none;stroke-width:4.11317;stroke-linecap:round;stroke-linejoin:round;stroke-dasharray:none;stroke-opacity:1;paint-order:markers stroke fill"
               d="m -99.688341,378.37169 a 12.336226,12.336226 0 0 0 -12.336409,12.33565 12.336226,12.336226 0 0 0 12.336409,12.3364 12.336226,12.336226 0 0 0 12.336407,-12.3364 12.336226,12.336226 0 0 0 -12.336407,-12.33565 z m 0,6.10308 a 6.2332678,6.2332678 0 0 1 6.233334,6.23257 6.2332678,6.2332678 0 0 1 -6.233334,6.23333 6.2332678,6.2332678 0 0 1 -6.233329,-6.23333 6.2332678,6.2332678 0 0 1 6.233329,-6.23257 z" /><path
               id="path29"
               style="fill:#593000;fill-opacity:1;stroke:none;stroke-width:4.11317;stroke-linecap:round;stroke-linejoin:round;stroke-dasharray:none;stroke-opacity:1;paint-order:markers stroke fill"
               d="m -16.933855,378.37169 a 12.336226,12.336226 0 0 0 -12.336409,12.33565 12.336226,12.336226 0 0 0 12.336409,12.3364 12.336226,12.336226 0 0 0 12.3364072,-12.3364 12.336226,12.336226 0 0 0 -12.3364072,-12.33565 z m 0,6.10308 a 6.2332678,6.2332678 0 0 1 6.233334,6.23257 6.2332678,6.2332678 0 0 1 -6.233334,6.23333 6.2332678,6.2332678 0 0 1 -6.233329,-6.23333 6.2332678,6.2332678 0 0 1 6.233329,-6.23257 z" /></g></g></g></g></g></svg>
